<svg xmlns="http://www.w3.org/2000/svg" width="79" height="76">
    <path fill="#3C3C3C" fill-rule="evenodd" d="M76.921 75.997H2.078c-1.149 0-2.08-.94-2.08-2.098V2.093c0-1.159.931-2.099 2.08-2.099h74.843C78.069-.006 79 .933 79 2.093v71.806c0 1.159-.931 2.098-2.079 2.098zM74.842 4.192H4.156v6.691h70.686V4.192zm0 10.888H4.156V71.8h70.686V15.08zM27.748 34.625c.711-.717 1.862-.717 2.573 0 .711.717.711 1.879 0 2.596l-4.364 4.407 4.374 4.415c.71.717.71 1.879 0 2.596-.355.358-.821.538-1.286.538-.466 0-.93-.18-1.286-.539l-5.66-5.712c-.711-.717-.711-1.88 0-2.597l5.649-5.704zm12.004-1.778c.248-.983 1.244-1.574 2.212-1.325.974.25 1.562 1.251 1.314 2.234l-4.624 18.281c-.21.829-.95 1.381-1.761 1.381-.149 0-.301-.018-.452-.057-.974-.25-1.56-1.25-1.312-2.233l4.623-18.281zm8.914 1.777c.71-.717 1.863-.717 2.572 0l5.66 5.713c.342.344.534.811.534 1.298s-.192.953-.534 1.298l-5.651 5.704c-.355.36-.82.54-1.285.54-.465 0-.932-.18-1.286-.539-.711-.717-.711-1.879 0-2.596l4.365-4.406-4.375-4.415c-.71-.718-.71-1.879 0-2.597zM9.181 6.069c.803 0 1.454.658 1.454 1.468 0 .811-.651 1.468-1.454 1.468-.804 0-1.455-.657-1.455-1.468 0-.81.651-1.468 1.455-1.468zm4.35.001c.803 0 1.454.657 1.454 1.467 0 .811-.651 1.467-1.454 1.467-.802 0-1.453-.656-1.453-1.467 0-.81.651-1.467 1.453-1.467zm4.35-.001c.803 0 1.454.658 1.454 1.468 0 .811-.651 1.468-1.454 1.468-.803 0-1.454-.657-1.454-1.468 0-.81.651-1.468 1.454-1.468z"/>
</svg>
