<svg xmlns="http://www.w3.org/2000/svg" width="79" height="91">
    <path fill="#3C3C3C" fill-rule="evenodd" d="M76.888 91H2.081C.92 91-.011 90.075-.011 88.921V13.483c0-1.143.931-2.078 2.092-2.078h20.467c.219-3.181 2.887-5.686 6.131-5.686h5.994C34.705 2.57 37.3.013 40.48.013c3.19 0 5.774 2.557 5.816 5.706h5.985c3.253 0 5.921 2.505 6.141 5.686h18.466c1.161 0 2.093.935 2.093 2.078v75.438c0 1.154-.932 2.079-2.093 2.079zM54.259 11.842c0-1.081-.878-1.965-1.977-1.965h-6.539c-1.998 0-3.63-1.62-3.63-3.606v-.478c0-.894-.733-1.622-1.632-1.622-.89 0-1.622.728-1.622 1.622v.478c0 1.984-1.633 3.606-3.641 3.606h-6.539c-1.088 0-1.968.884-1.968 1.965h.002v4.261h27.546v-4.261zm20.535 3.72H58.441v2.619c0 1.154-.931 2.079-2.092 2.079H24.618c-1.161 0-2.092-.925-2.092-2.079v-2.619H4.173v71.281h70.621V15.562zM19.768 32.375l1.989 1.975 5.086-5.052c.612-.609 1.606-.609 2.219 0 .613.608.613 1.596 0 2.205l-6.195 6.154c-.308.305-.71.457-1.111.457-.402 0-.803-.152-1.109-.457l-3.098-3.077c-.612-.609-.612-1.596 0-2.205.613-.609 1.606-.609 2.219 0zm0 13.34l1.989 1.974 5.086-5.051c.612-.609 1.606-.609 2.219 0 .614.608.613 1.596 0 2.205l-6.195 6.154c-.308.305-.71.457-1.111.457-.402 0-.803-.153-1.109-.457l-3.098-3.077c-.612-.609-.612-1.596 0-2.205.613-.609 1.606-.609 2.219 0zm0 13.34l1.989 1.976 5.086-5.052c.612-.609 1.606-.609 2.219 0 .613.609.613 1.596 0 2.205l-6.195 6.155c-.308.304-.71.455-1.111.455-.402 0-.803-.152-1.109-.456l-3.098-3.077c-.612-.609-.612-1.597 0-2.206.613-.608 1.606-.608 2.219 0zm0 13.342l1.989 1.976 5.086-5.052c.612-.609 1.606-.609 2.219 0 .614.609.613 1.596 0 2.205l-6.195 6.154c-.308.304-.71.457-1.111.457-.402 0-.803-.153-1.109-.457l-3.098-3.078c-.612-.609-.612-1.596 0-2.205.613-.608 1.606-.608 2.219 0zm15.869-40.478h18.674c.866 0 1.569.698 1.569 1.559s-.702 1.559-1.569 1.559H35.637c-.866 0-1.569-.698-1.569-1.559s.703-1.559 1.569-1.559zm0 13.341h18.674c.866 0 1.569.698 1.569 1.559s-.702 1.559-1.569 1.559H35.637c-.866 0-1.569-.698-1.569-1.559s.703-1.559 1.569-1.559zm0 13.34h18.674c.866 0 1.569.697 1.569 1.559 0 .861-.702 1.558-1.569 1.558H35.637c-.866 0-1.569-.697-1.569-1.558 0-.862.703-1.559 1.569-1.559zm0 13.34h18.674c.866 0 1.569.698 1.569 1.559s-.702 1.559-1.569 1.559H35.637c-.866 0-1.569-.698-1.569-1.559s.703-1.559 1.569-1.559zm4.848-61.8c1.11 0 2.009.894 2.009 1.997 0 1.102-.899 1.996-2.009 1.996-1.11 0-2.01-.894-2.01-1.996 0-1.103.9-1.997 2.01-1.997z"/>
</svg>
